<svg id="Layer_1" data-name="Layer 1" xmlns="http://www.w3.org/2000/svg" viewBox="0 0 633 49"><title>Artboard 1</title><g id="tgam-logo-default"><path d="M607.725,26.164c1.822-.22,3.766-3.032,4.011-3.9.269-1.015.159-1.321-2.25-1.162s-4.255-3.154-4.255-3.154c-.342-.489-1.174-.245-1.088-.819.257-.587,1.161-.257,2.164-.343s1.577-.9,1.088-1.577-2.677-2.482-3.252-3.228-.831-1.149.575-1.32c1.43-.171,1.76-.99,1.516-1.492a3.83,3.83,0,0,1-.086-2.91,2.981,2.981,0,0,0,0-2.4c-.342-.245-.758-1.076-.5-1.406,1.748.073,3.888,2.959,4.218,3.277,1.223-1.651,2.543,1.687,3.289,3.105s1.076.575,1.5.245c.4-.33,2.164-5.967,2.409-6.542s.843-.917.843,0a1.306,1.306,0,0,0,1.663,1.321,16.4,16.4,0,0,0,3.68-3.228C624-.453,624,.794,624,.794c.086.672.171,5.306,1.088,5.062,1.088-.5,1.247-.33,1.247,0a10.975,10.975,0,0,1-1.418,4.218c-1.174,2.164-1.333,1.748-.917,3.326.673,1.406,2.176.574,2.922,0s1.345-.758,1.92.159a1.942,1.942,0,0,0,2.506.745c.746-.415,1.333-.489,1.577-.171.086.416-.831,1.663-2.249,2.568-1.333.917-.416,1.247-.074,1.5.318.244.318.574-1.6,1.076-3.913,1.161-2.58,1.98-2.58,1.98s1.088.257,1,.758c-1.919,1.565-3.007.734-5.257,1.248-2.25.648-.5,2.054-.5,2.054.5.256,1.259.586,1.088,1-4.255.917-7.6-2.408-8.265-3.57-.489-.88-.942-.819-1.064-.819-.257,0-.477.3-1.027,1.271-1.223,2.091-3.106,4.9-4.732,4.769a.667.667,0,0,1-.342-.11,1.082,1.082,0,0,1-.514-1.04.694.694,0,0,1,.917-.66"/><path d="M112.522,41.863l1.944-7.874,3.069.551-.489,14.451H63.053V46.5h4.719V27.424H53.516V46.5h4.793v2.494H38.7V46.5h5.356V4.694H38.966V16.163c-1.112.061-2.017.269-3.13.342L33.4,7.665c-.7-2.359-1.186-2.971-4.169-2.971H24.221V46.5h6.615v2.494H8.216V46.5h6.542V4.694H9.891c-2.787,0-3.619.416-4.316,2.971L3.13,16.505c-1.113-.073-2.017-.281-3.13-.342L.489,2.2h57.82V4.694H53.516V23.829H67.772V4.694H63.053V2.2H82.041V4.694h-4.8V46.5H88.717V4.694H84.339V2.2h31.178V16.016c-1.112.147-2.017.147-3.069.281l-2.433-8.228c-.77-2.409-1.883-3.375-4.45-3.375H98.192V23.621h12.031V27.5H98.192c0,.758-.073,5.661-.073,8.363-.074,4.279-.074,9.048-.074,10.637h9.464c2.506,0,4.035-1.516,5.013-4.634m41.742-9.182V30.187h13.987V47.4l-4.316.342A42.061,42.061,0,0,1,153.3,49.811c-11.481,0-20.529-7.6-20.529-23.427,0-12.226,7.862-24.942,20.8-24.942,7.727,0,12.116,1.8,13.51,2.69V16.579l-3.35.758c-2.079-7.874-4.169-12.851-10.014-12.851-8.008,0-10.784,9.745-10.784,20.59,0,16.518,4.378,21.421,10.919,21.421a18.151,18.151,0,0,0,5.221-.966V32.681h-4.8M197.13,41.8l2.641-8.021c1.052.147,1.883.147,2.922.282l-1.039,14.928H170.831V46.5h5.013V4.694h-4.806V2.2h19.478V4.694h-5.209c0,36.754,0,41.387-.281,41.8h6.883c2.715,0,4.035-1.174,5.221-4.695m44.811-16.726c0,13.193-5.979,24.735-19.489,24.735-11.408,0-19.4-7.8-19.4-23.635,0-13.192,5.905-24.734,19.4-24.734C234.629,1.442,241.941,10.221,241.941,25.076Zm-10.026.624c0-18.524-5.7-21.006-9.463-21.006-5.564,0-9.391,5.038-9.391,20.859,0,17.35,5.221,21.018,9.391,21.018C227.257,46.571,231.915,42.352,231.915,25.7Zm37.1-.624c5.844,1.308,10.087,6.016,10.087,11.615,0,7.251-5.845,12.3-15.724,12.3H243.542V46.5h4.94V4.682h-4.94V2.2h19.416c9.879,0,15.1,4.561,15.1,12.092,0,3.876-3.827,8.852-9.047,10.368v.416Zm-11-20.382V23.487h5.856c3.338,0,5.209-3.937,5.209-8.5,0-7.532-2.715-10.3-6.187-10.3h-4.878Zm11.419,31.924c0-5.881-1.393-10.234-5.917-10.234h-5.49V44.908c0,.966,0,1.589.685,1.589h4.744C266.712,46.5,269.426,44.7,269.426,36.618Zm40.422,5.245,1.956-7.874,3.057.551-.49,14.451H280.076V46.5h5.979V4.694h-4.378V2.2h31.166V16.016c-1.112.147-2.017.147-3.057.281l-2.433-8.228c-.77-2.409-1.883-3.375-4.462-3.375h-7.373V23.621h12.043V27.5H295.518c0,.758-.073,5.661-.073,8.363-.061,4.279-.061,9.048-.061,10.637h9.463c2.494,0,4.035-1.516,5-4.634M425.218,2.2c13.291,0,22.412,9.463,22.4,22.8,0,13.131-8,23.988-21.775,23.988H406.915V46.5h5.221V4.694h-4.805c-3.412.061-5.282.819-5.282,3.864V48.991h-3.693c-7.3-11.957-14.4-23.988-21.641-36.007V41.937c0,2.9.355,4.487,6.126,4.634v2.42H351.528V46.5h5.148L352.3,31.361H340.952L338.519,39.8a16.02,16.02,0,0,0-.354,3.313c0,2.971,1.259,3.045,5.367,3.387h.416v2.482H328.982V46.558h.074c3.056,0,4.658-2.482,5.636-5.453,0,0,10.3-31.85,12.043-38.9H353.2l13.633,44.3h2.3c2.151-.073,4.242-.623,4.242-4.634V8.069a9.848,9.848,0,0,0-4.658-3.656V2.2h12.312c5.918,9.953,11.836,19.771,17.814,29.65V8.558c0-2.555-.831-3.864-5.771-3.864V2.2ZM341.649,28.879h9.879l-4.939-17.216-4.94,17.216Zm95.331-3.326c0-14.648-5.355-20.859-15.307-20.859V44.419c0,1.32.489,2.078,1.6,2.078C432.738,46.5,436.98,40.69,436.98,25.553ZM566.473,46.5h4.3v2.494H533.62V46.5h5.159L534.39,31.361H523.056L520.61,39.8a16.748,16.748,0,0,0-.342,3.313c0,2.971,1.247,3.045,5.355,3.387h.416v2.494h-32.07V46.5h4.585l-1.81-35.592c-3.961,10.5-7.788,20.663-11.689,31.239l-1.528.7c-3.961-11.2-8.2-22.607-12.178-33.794V8.705c-.281,8.216-.55,13.473-.831,21.555-.208,5.808-.416,11.884-.416,12.716,0,1.455.905,3.448,6.81,3.595v2.42H460.431V46.705c4.169-.208,5.771-1.8,5.905-3.729.636-8.7,1.541-24.123,1.957-32.413v-.489c0-4.622-.355-5.38-5.16-5.38V2.2h15.528c2.775,8.229,5.844,16.653,8.766,24.881l8.9-24.881h14.685V4.694h-5.356l2.507,41.8h3.656c2.616-.342,4.071-2.653,4.964-5.392,0,0,10.307-31.85,12.043-38.9h6.468L548.94,46.5h7.372V4.694h-4.389V2.2h18.866V4.694h-4.316V46.5ZM533.632,28.879,528.68,11.663l-4.939,17.216Zm68.4,4.9c1.039.135,1.87.135,2.922.282L603.9,48.991H573.075V46.5h5.013V4.694h-4.8V2.2h19.489V4.694h-5.221c0,36.766,0,41.387-.281,41.8h6.9c2.7,0,4.035-1.174,5.221-4.695l2.641-8.021"/></g></svg>